STARTFONT 2.1
FONT -jmk-Neep-Medium-R-SemiCondensed--11-100-75-75-C-50-ISO8859-1
SIZE 10 75 75
FONTBOUNDINGBOX 5 11 0 -2
STARTPROPERTIES 29
FONTNAME_REGISTRY ""
FOUNDRY "jmk"
FAMILY_NAME "Neep"
WEIGHT_NAME "Medium"
SLANT "R"
SETWIDTH_NAME "SemiCondensed"
ADD_STYLE_NAME ""
PIXEL_SIZE 11
POINT_SIZE 100
RESOLUTION_X 75
RESOLUTION_Y 75
SPACING "C"
AVERAGE_WIDTH 50
CHARSET_REGISTRY "ISO8859"
CHARSET_ENCODING "1"
COPYRIGHT "Jim Knoble <jmknoble@pobox.com>"
WEIGHT 140
RESOLUTION 75
X_HEIGHT 5
FIGURE_WIDTH 5
QUAD_WIDTH 5
FONT_ASCENT 9
FONT_DESCENT 2
_XMBDFED_INFO "Edited with xmbdfed 3.7."
RELATIVE_WEIGHT 50
RELATIVE_SETWIDTH 40
CAP_HEIGHT 7
UNDERLINE_POSITION -1
UNDERLINE_THICKNESS 1
ENDPROPERTIES
CHARS 256
STARTCHAR solid box
ENCODING 0
SWIDTH 480 0
DWIDTH 5 0
BBX 5 11 0 -2
BITMAP
00
70
70
70
70
70
70
70
70
70
00
ENDCHAR
STARTCHAR diamond
ENCODING 1
SWIDTH 480 0
DWIDTH 5 0
BBX 5 11 0 -2
BITMAP
00
00
00
20
70
F8
70
20
00
00
00
ENDCHAR
STARTCHAR dithered box
ENCODING 2
SWIDTH 480 0
DWIDTH 5 0
BBX 5 11 0 -2
BITMAP
00
50
A8
50
A8
50
A8
50
A8
50
A8
ENDCHAR
STARTCHAR horizontal tab visible control
ENCODING 3
SWIDTH 480 0
DWIDTH 5 0
BBX 5 11 0 -2
BITMAP
00
A0
A0
E0
A0
A0
00
70
20
20
20
ENDCHAR
STARTCHAR form feed visible control
ENCODING 4
SWIDTH 480 0
DWIDTH 5 0
BBX 5 11 0 -2
BITMAP
00
E0
80
C0
80
80
70
40
60
40
40
ENDCHAR
STARTCHAR carriage return visible control
ENCODING 5
SWIDTH 480 0
DWIDTH 5 0
BBX 5 11 0 -2
BITMAP
00
60
80
80
60
00
60
50
60
60
50
ENDCHAR
STARTCHAR line feed visible control
ENCODING 6
SWIDTH 480 0
DWIDTH 5 0
BBX 5 11 0 -2
BITMAP
00
80
80
80
E0
00
70
40
60
40
40
ENDCHAR
STARTCHAR degree sign
ENCODING 7
SWIDTH 480 0
DWIDTH 5 0
BBX 5 11 0 -2
BITMAP
00
60
90
90
60
00
00
00
00
00
00
ENDCHAR
STARTCHAR plus-minus-sign
ENCODING 8
SWIDTH 480 0
DWIDTH 5 0
BBX 5 11 0 -2
BITMAP
00
00
20
20
F8
20
20
00
F8
00
00
ENDCHAR
STARTCHAR null visible control
ENCODING 9
SWIDTH 480 0
DWIDTH 5 0
BBX 5 11 0 -2
BITMAP
00
90
D0
B0
90
00
40
40
40
40
70
ENDCHAR
STARTCHAR vertical tab visible control
ENCODING 10
SWIDTH 480 0
DWIDTH 5 0
BBX 5 11 0 -2
BITMAP
00
90
90
90
60
60
00
70
20
20
20
ENDCHAR
STARTCHAR box drawing lower right corner
ENCODING 11
SWIDTH 480 0
DWIDTH 5 0
BBX 5 11 0 -2
BITMAP
20
20
20
20
20
E0
00
00
00
00
00
ENDCHAR
STARTCHAR box drawing upper right corner
ENCODING 12
SWIDTH 480 0
DWIDTH 5 0
BBX 5 11 0 -2
BITMAP
00
00
00
00
00
E0
20
20
20
20
20
ENDCHAR
STARTCHAR box drawing upper left corner
ENCODING 13
SWIDTH 480 0
DWIDTH 5 0
BBX 5 11 0 -2
BITMAP
00
00
00
00
00
38
20
20
20
20
20
ENDCHAR
STARTCHAR box drawing lower left corner
ENCODING 14
SWIDTH 480 0
DWIDTH 5 0
BBX 5 11 0 -2
BITMAP
20
20
20
20
20
38
00
00
00
00
00
ENDCHAR
STARTCHAR box drawing cross
ENCODING 15
SWIDTH 480 0
DWIDTH 5 0
BBX 5 11 0 -2
BITMAP
20
20
20
20
20
F8
20
20
20
20
20
ENDCHAR
STARTCHAR box drawing horizontal line high
ENCODING 16
SWIDTH 480 0
DWIDTH 5 0
BBX 5 11 0 -2
BITMAP
00
F8
00
00
00
00
00
00
00
00
00
ENDCHAR
STARTCHAR box drawing horizontal line medium high
ENCODING 17
SWIDTH 480 0
DWIDTH 5 0
BBX 5 11 0 -2
BITMAP
00
00
00
F8
00
00
00
00
00
00
00
ENDCHAR
STARTCHAR box drawing horizontal line middle
ENCODING 18
SWIDTH 480 0
DWIDTH 5 0
BBX 5 11 0 -2
BITMAP
00
00
00
00
00
F8
00
00
00
00
00
ENDCHAR
STARTCHAR box drawing horizontal line medium low
ENCODING 19
SWIDTH 480 0
DWIDTH 5 0
BBX 5 11 0 -2
BITMAP
00
00
00
00
00
00
00
F8
00
00
00
ENDCHAR
STARTCHAR box drawing horizontal line low
ENCODING 20
SWIDTH 480 0
DWIDTH 5 0
BBX 5 11 0 -2
BITMAP
00
00
00
00
00
00
00
00
00
F8
00
ENDCHAR
STARTCHAR box drawing left tee
ENCODING 21
SWIDTH 480 0
DWIDTH 5 0
BBX 5 11 0 -2
BITMAP
20
20
20
20
20
38
20
20
20
20
20
ENDCHAR
STARTCHAR box drawing right tee
ENCODING 22
SWIDTH 480 0
DWIDTH 5 0
BBX 5 11 0 -2
BITMAP
20
20
20
20
20
E0
20
20
20
20
20
ENDCHAR
STARTCHAR box drawing lower tee
ENCODING 23
SWIDTH 480 0
DWIDTH 5 0
BBX 5 11 0 -2
BITMAP
20
20
20
20
20
F8
00
00
00
00
00
ENDCHAR
STARTCHAR box drawing upper tee
ENCODING 24
SWIDTH 480 0
DWIDTH 5 0
BBX 5 11 0 -2
BITMAP
00
00
00
00
00
F8
20
20
20
20
20
ENDCHAR
STARTCHAR box drawing vertical line
ENCODING 25
SWIDTH 480 0
DWIDTH 5 0
BBX 5 11 0 -2
BITMAP
20
20
20
20
20
20
20
20
20
20
20
ENDCHAR
STARTCHAR less-than-or-equal sign
ENCODING 26
SWIDTH 480 0
DWIDTH 5 0
BBX 5 11 0 -2
BITMAP
00
00
20
40
80
40
20
00
F0
00
00
ENDCHAR
STARTCHAR greater-than-or-equal sign
ENCODING 27
SWIDTH 480 0
DWIDTH 5 0
BBX 5 11 0 -2
BITMAP
00
00
40
20
10
20
40
00
F0
00
00
ENDCHAR
STARTCHAR greek small letter pi
ENCODING 28
SWIDTH 480 0
DWIDTH 5 0
BBX 5 11 0 -2
BITMAP
00
00
00
00
F8
50
50
50
50
00
00
ENDCHAR
STARTCHAR not-equal sign
ENCODING 29
SWIDTH 480 0
DWIDTH 5 0
BBX 5 11 0 -2
BITMAP
00
00
00
10
F0
20
F0
40
00
00
00
ENDCHAR
STARTCHAR pound sign
ENCODING 30
SWIDTH 480 0
DWIDTH 5 0
BBX 5 11 0 -2
BITMAP
00
00
20
50
40
E0
40
40
F0
00
00
ENDCHAR
STARTCHAR middle dot
ENCODING 31
SWIDTH 480 0
DWIDTH 5 0
BBX 5 11 0 -2
BITMAP
00
00
00
00
00
40
40
00
00
00
00
ENDCHAR
STARTCHAR U+0020 space
ENCODING 32
SWIDTH 480 0
DWIDTH 5 0
BBX 5 11 0 -2
BITMAP
00
00
00
00
00
00
00
00
00
00
00
ENDCHAR
STARTCHAR U+0021 exclamation mark
ENCODING 33
SWIDTH 480 0
DWIDTH 5 0
BBX 5 11 0 -2
BITMAP
00
00
40
40
40
40
40
00
40
00
00
ENDCHAR
STARTCHAR U+0022 quotation mark
ENCODING 34
SWIDTH 480 0
DWIDTH 5 0
BBX 5 11 0 -2
BITMAP
00
A0
A0
A0
00
00
00
00
00
00
00
ENDCHAR
STARTCHAR U+0023 number sign
ENCODING 35
SWIDTH 480 0
DWIDTH 5 0
BBX 5 11 0 -2
BITMAP
00
00
50
50
F8
50
F8
50
50
00
00
ENDCHAR
STARTCHAR U+0024 dollar sign
ENCODING 36
SWIDTH 480 0
DWIDTH 5 0
BBX 5 11 0 -2
BITMAP
00
00
20
70
A0
60
30
E0
20
00
00
ENDCHAR
STARTCHAR U+0025 percent sign
ENCODING 37
SWIDTH 480 0
DWIDTH 5 0
BBX 5 11 0 -2
BITMAP
00
00
D0
E0
20
40
40
B0
B0
00
00
ENDCHAR
STARTCHAR U+0026 ampersand
ENCODING 38
SWIDTH 480 0
DWIDTH 5 0
BBX 5 11 0 -2
BITMAP
00
00
20
70
80
60
80
70
20
00
00
ENDCHAR
STARTCHAR U+0027 apostrophe
ENCODING 39
SWIDTH 480 0
DWIDTH 5 0
BBX 5 11 0 -2
BITMAP
00
20
20
40
00
00
00
00
00
00
00
ENDCHAR
STARTCHAR U+0028 left parenthesis
ENCODING 40
SWIDTH 480 0
DWIDTH 5 0
BBX 5 11 0 -2
BITMAP
00
10
20
40
40
40
40
40
20
10
00
ENDCHAR
STARTCHAR U+0029 right parenthesis
ENCODING 41
SWIDTH 480 0
DWIDTH 5 0
BBX 5 11 0 -2
BITMAP
00
80
40
20
20
20
20
20
40
80
00
ENDCHAR
STARTCHAR U+002a asterisk
ENCODING 42
SWIDTH 480 0
DWIDTH 5 0
BBX 5 11 0 -2
BITMAP
00
00
00
00
A0
40
A0
00
00
00
00
ENDCHAR
STARTCHAR U+002b plus sign
ENCODING 43
SWIDTH 480 0
DWIDTH 5 0
BBX 5 11 0 -2
BITMAP
00
00
00
20
20
F8
20
20
00
00
00
ENDCHAR
STARTCHAR U+002c comma
ENCODING 44
SWIDTH 480 0
DWIDTH 5 0
BBX 5 11 0 -2
BITMAP
00
00
00
00
00
00
00
40
40
80
00
ENDCHAR
STARTCHAR U+002d hyphen-minus
ENCODING 45
SWIDTH 480 0
DWIDTH 5 0
BBX 5 11 0 -2
BITMAP
00
00
00
00
00
F0
00
00
00
00
00
ENDCHAR
STARTCHAR U+002e period
ENCODING 46
SWIDTH 480 0
DWIDTH 5 0
BBX 5 11 0 -2
BITMAP
00
00
00
00
00
00
00
40
40
00
00
ENDCHAR
STARTCHAR U+002f forward slash
ENCODING 47
SWIDTH 480 0
DWIDTH 5 0
BBX 5 11 0 -2
BITMAP
00
00
10
10
20
20
40
40
80
80
00
ENDCHAR
STARTCHAR U+0030 digit zero
ENCODING 48
SWIDTH 480 0
DWIDTH 5 0
BBX 5 11 0 -2
BITMAP
00
00
20
50
90
90
90
A0
40
00
00
ENDCHAR
STARTCHAR U+0031 digit one
ENCODING 49
SWIDTH 480 0
DWIDTH 5 0
BBX 5 11 0 -2
BITMAP
00
00
20
60
20
20
20
20
20
00
00
ENDCHAR
STARTCHAR U+0032 digit two
ENCODING 50
SWIDTH 480 0
DWIDTH 5 0
BBX 5 11 0 -2
BITMAP
00
00
60
90
10
20
40
80
F0
00
00
ENDCHAR
STARTCHAR U+0033 digit three
ENCODING 51
SWIDTH 480 0
DWIDTH 5 0
BBX 5 11 0 -2
BITMAP
00
00
F0
10
20
60
10
90
60
00
00
ENDCHAR
STARTCHAR U+0034 digit four
ENCODING 52
SWIDTH 480 0
DWIDTH 5 0
BBX 5 11 0 -2
BITMAP
00
00
60
60
A0
A0
F0
20
20
00
00
ENDCHAR
STARTCHAR U+0035 digit five
ENCODING 53
SWIDTH 480 0
DWIDTH 5 0
BBX 5 11 0 -2
BITMAP
00
00
F0
80
E0
90
10
90
60
00
00
ENDCHAR
STARTCHAR U+0036 digit six
ENCODING 54
SWIDTH 480 0
DWIDTH 5 0
BBX 5 11 0 -2
BITMAP
00
00
60
90
80
E0
90
90
60
00
00
ENDCHAR
STARTCHAR U+0037 digit seven
ENCODING 55
SWIDTH 480 0
DWIDTH 5 0
BBX 5 11 0 -2
BITMAP
00
00
F0
10
10
20
20
40
40
00
00
ENDCHAR
STARTCHAR U+0038 digit eight
ENCODING 56
SWIDTH 480 0
DWIDTH 5 0
BBX 5 11 0 -2
BITMAP
00
00
60
90
90
60
90
90
60
00
00
ENDCHAR
STARTCHAR U+0039 digit nine
ENCODING 57
SWIDTH 480 0
DWIDTH 5 0
BBX 5 11 0 -2
BITMAP
00
00
60
90
90
70
10
90
60
00
00
ENDCHAR
STARTCHAR U+003a colon
ENCODING 58
SWIDTH 480 0
DWIDTH 5 0
BBX 5 11 0 -2
BITMAP
00
00
00
40
40
00
00
40
40
00
00
ENDCHAR
STARTCHAR U+003b semicolon
ENCODING 59
SWIDTH 480 0
DWIDTH 5 0
BBX 5 11 0 -2
BITMAP
00
00
00
40
40
00
00
40
40
80
00
ENDCHAR
STARTCHAR U+003c less-than sign
ENCODING 60
SWIDTH 480 0
DWIDTH 5 0
BBX 5 11 0 -2
BITMAP
00
00
00
20
40
80
80
40
20
00
00
ENDCHAR
STARTCHAR U+003d equals sign
ENCODING 61
SWIDTH 480 0
DWIDTH 5 0
BBX 5 11 0 -2
BITMAP
00
00
00
00
F0
00
F0
00
00
00
00
ENDCHAR
STARTCHAR U+003e greater-than sign
ENCODING 62
SWIDTH 480 0
DWIDTH 5 0
BBX 5 11 0 -2
BITMAP
00
00
00
80
40
20
20
40
80
00
00
ENDCHAR
STARTCHAR U+003f question mark
ENCODING 63
SWIDTH 480 0
DWIDTH 5 0
BBX 5 11 0 -2
BITMAP
00
00
E0
10
20
40
40
00
40
00
00
ENDCHAR
STARTCHAR U+0040 at sign
ENCODING 64
SWIDTH 480 0
DWIDTH 5 0
BBX 5 11 0 -2
BITMAP
00
00
60
90
B0
B0
B0
80
60
00
00
ENDCHAR
STARTCHAR U+0041 latin capital letter A
ENCODING 65
SWIDTH 480 0
DWIDTH 5 0
BBX 5 11 0 -2
BITMAP
00
00
60
90
90
F0
90
90
90
00
00
ENDCHAR
STARTCHAR U+0042 latin capital letter B
ENCODING 66
SWIDTH 480 0
DWIDTH 5 0
BBX 5 11 0 -2
BITMAP
00
00
C0
A0
A0
E0
90
90
E0
00
00
ENDCHAR
STARTCHAR U+0043 latin capital letter C
ENCODING 67
SWIDTH 480 0
DWIDTH 5 0
BBX 5 11 0 -2
BITMAP
00
00
60
90
80
80
80
90
60
00
00
ENDCHAR
STARTCHAR U+0044 latin capital letter D
ENCODING 68
SWIDTH 480 0
DWIDTH 5 0
BBX 5 11 0 -2
BITMAP
00
00
C0
A0
90
90
90
A0
C0
00
00
ENDCHAR
STARTCHAR U+0045 latin capital letter E
ENCODING 69
SWIDTH 480 0
DWIDTH 5 0
BBX 5 11 0 -2
BITMAP
00
00
F0
80
80
E0
80
80
F0
00
00
ENDCHAR
STARTCHAR U+0046 latin capital letter F
ENCODING 70
SWIDTH 480 0
DWIDTH 5 0
BBX 5 11 0 -2
BITMAP
00
00
F0
80
80
E0
80
80
80
00
00
ENDCHAR
STARTCHAR U+0047 latin capital letter G
ENCODING 71
SWIDTH 480 0
DWIDTH 5 0
BBX 5 11 0 -2
BITMAP
00
00
60
90
80
B0
90
90
60
00
00
ENDCHAR
STARTCHAR U+0048 latin capital letter H
ENCODING 72
SWIDTH 480 0
DWIDTH 5 0
BBX 5 11 0 -2
BITMAP
00
00
90
90
90
F0
90
90
90
00
00
ENDCHAR
STARTCHAR U+0049 latin capital letter I
ENCODING 73
SWIDTH 480 0
DWIDTH 5 0
BBX 5 11 0 -2
BITMAP
00
00
E0
40
40
40
40
40
E0
00
00
ENDCHAR
STARTCHAR U+004a latin capital letter J
ENCODING 74
SWIDTH 480 0
DWIDTH 5 0
BBX 5 11 0 -2
BITMAP
00
00
30
10
10
10
10
90
60
00
00
ENDCHAR
STARTCHAR U+004b latin capital letter K
ENCODING 75
SWIDTH 480 0
DWIDTH 5 0
BBX 5 11 0 -2
BITMAP
00
00
90
A0
C0
A0
A0
90
90
00
00
ENDCHAR
STARTCHAR U+004c latin capital letter L
ENCODING 76
SWIDTH 480 0
DWIDTH 5 0
BBX 5 11 0 -2
BITMAP
00
00
80
80
80
80
80
80
F0
00
00
ENDCHAR
STARTCHAR U+004d latin capital letter M
ENCODING 77
SWIDTH 480 0
DWIDTH 5 0
BBX 5 11 0 -2
BITMAP
00
00
90
F0
F0
90
90
90
90
00
00
ENDCHAR
STARTCHAR U+004e latin capital letter N
ENCODING 78
SWIDTH 480 0
DWIDTH 5 0
BBX 5 11 0 -2
BITMAP
00
00
90
D0
D0
B0
B0
90
90
00
00
ENDCHAR
STARTCHAR U+004f latin capital letter O
ENCODING 79
SWIDTH 480 0
DWIDTH 5 0
BBX 5 11 0 -2
BITMAP
00
00
60
90
90
90
90
90
60
00
00
ENDCHAR
STARTCHAR U+0050 latin capital letter P
ENCODING 80
SWIDTH 480 0
DWIDTH 5 0
BBX 5 11 0 -2
BITMAP
00
00
E0
90
90
E0
80
80
80
00
00
ENDCHAR
STARTCHAR U+0051 latin capital letter Q
ENCODING 81
SWIDTH 480 0
DWIDTH 5 0
BBX 5 11 0 -2
BITMAP
00
00
60
90
90
90
90
D0
60
30
00
ENDCHAR
STARTCHAR U+0052 latin capital letter R
ENCODING 82
SWIDTH 480 0
DWIDTH 5 0
BBX 5 11 0 -2
BITMAP
00
00
E0
90
90
E0
C0
A0
90
00
00
ENDCHAR
STARTCHAR U+0053 latin capital letter S
ENCODING 83
SWIDTH 480 0
DWIDTH 5 0
BBX 5 11 0 -2
BITMAP
00
00
60
90
80
60
10
90
60
00
00
ENDCHAR
STARTCHAR U+0054 latin capital letter T
ENCODING 84
SWIDTH 480 0
DWIDTH 5 0
BBX 5 11 0 -2
BITMAP
00
00
E0
40
40
40
40
40
40
00
00
ENDCHAR
STARTCHAR U+0055 latin capital letter U
ENCODING 85
SWIDTH 480 0
DWIDTH 5 0
BBX 5 11 0 -2
BITMAP
00
00
90
90
90
90
90
90
60
00
00
ENDCHAR
STARTCHAR U+0056 latin capital letter V
ENCODING 86
SWIDTH 480 0
DWIDTH 5 0
BBX 5 11 0 -2
BITMAP
00
00
90
90
90
90
60
60
60
00
00
ENDCHAR
STARTCHAR U+0057 latin capital letter W
ENCODING 87
SWIDTH 480 0
DWIDTH 5 0
BBX 5 11 0 -2
BITMAP
00
00
90
90
90
90
F0
F0
90
00
00
ENDCHAR
STARTCHAR U+0058 latin capital letter X
ENCODING 88
SWIDTH 480 0
DWIDTH 5 0
BBX 5 11 0 -2
BITMAP
00
00
90
90
60
60
60
90
90
00
00
ENDCHAR
STARTCHAR U+0059 latin capital letter Y
ENCODING 89
SWIDTH 480 0
DWIDTH 5 0
BBX 5 11 0 -2
BITMAP
00
00
90
90
90
60
20
20
20
00
00
ENDCHAR
STARTCHAR U+005a latin capital letter Z
ENCODING 90
SWIDTH 480 0
DWIDTH 5 0
BBX 5 11 0 -2
BITMAP
00
00
F0
10
20
40
40
80
F0
00
00
ENDCHAR
STARTCHAR U+005b left square bracket
ENCODING 91
SWIDTH 480 0
DWIDTH 5 0
BBX 5 11 0 -2
BITMAP
00
60
40
40
40
40
40
40
40
60
00
ENDCHAR
STARTCHAR U+005c backslash
ENCODING 92
SWIDTH 480 0
DWIDTH 5 0
BBX 5 11 0 -2
BITMAP
00
00
80
80
40
40
20
20
10
10
00
ENDCHAR
STARTCHAR U+005d right square bracket
ENCODING 93
SWIDTH 480 0
DWIDTH 5 0
BBX 5 11 0 -2
BITMAP
00
60
20
20
20
20
20
20
20
60
00
ENDCHAR
STARTCHAR U+005e circumflex
ENCODING 94
SWIDTH 480 0
DWIDTH 5 0
BBX 5 11 0 -2
BITMAP
00
00
60
60
90
90
00
00
00
00
00
ENDCHAR
STARTCHAR U+005f underscore
ENCODING 95
SWIDTH 480 0
DWIDTH 5 0
BBX 5 11 0 -2
BITMAP
00
00
00
00
00
00
00
00
00
F0
00
ENDCHAR
STARTCHAR U+0060 grave accent
ENCODING 96
SWIDTH 480 0
DWIDTH 5 0
BBX 5 11 0 -2
BITMAP
00
40
40
20
00
00
00
00
00
00
00
ENDCHAR
STARTCHAR U+0061 latin small letter a
ENCODING 97
SWIDTH 480 0
DWIDTH 5 0
BBX 5 11 0 -2
BITMAP
00
00
00
00
60
10
70
90
70
00
00
ENDCHAR
STARTCHAR U+0062 latin small letter b
ENCODING 98
SWIDTH 480 0
DWIDTH 5 0
BBX 5 11 0 -2
BITMAP
00
00
80
80
E0
90
90
90
E0
00
00
ENDCHAR
STARTCHAR U+0063 latin small letter c
ENCODING 99
SWIDTH 480 0
DWIDTH 5 0
BBX 5 11 0 -2
BITMAP
00
00
00
00
60
90
80
90
60
00
00
ENDCHAR
STARTCHAR U+0064 latin small letter d
ENCODING 100
SWIDTH 480 0
DWIDTH 5 0
BBX 5 11 0 -2
BITMAP
00
00
10
10
70
90
90
90
70
00
00
ENDCHAR
STARTCHAR U+0065 latin small letter e
ENCODING 101
SWIDTH 480 0
DWIDTH 5 0
BBX 5 11 0 -2
BITMAP
00
00
00
00
60
90
F0
80
70
00
00
ENDCHAR
STARTCHAR U+0066 latin small letter f
ENCODING 102
SWIDTH 480 0
DWIDTH 5 0
BBX 5 11 0 -2
BITMAP
00
00
20
50
40
E0
40
40
40
00
00
ENDCHAR
STARTCHAR U+0067 latin small letter g
ENCODING 103
SWIDTH 480 0
DWIDTH 5 0
BBX 5 11 0 -2
BITMAP
00
00
00
00
70
90
90
70
10
90
60
ENDCHAR
STARTCHAR U+0068 latin small letter h
ENCODING 104
SWIDTH 480 0
DWIDTH 5 0
BBX 5 11 0 -2
BITMAP
00
00
80
80
E0
90
90
90
90
00
00
ENDCHAR
STARTCHAR U+0069 latin small letter i
ENCODING 105
SWIDTH 480 0
DWIDTH 5 0
BBX 5 11 0 -2
BITMAP
00
00
20
00
60
20
20
20
20
00
00
ENDCHAR
STARTCHAR U+006a latin small letter j
ENCODING 106
SWIDTH 480 0
DWIDTH 5 0
BBX 5 11 0 -2
BITMAP
00
00
20
00
60
20
20
20
20
A0
40
ENDCHAR
STARTCHAR U+006b latin small letter k
ENCODING 107
SWIDTH 480 0
DWIDTH 5 0
BBX 5 11 0 -2
BITMAP
00
00
80
80
90
A0
C0
A0
90
00
00
ENDCHAR
STARTCHAR U+006c latin small letter l
ENCODING 108
SWIDTH 480 0
DWIDTH 5 0
BBX 5 11 0 -2
BITMAP
00
00
40
40
40
40
40
40
20
00
00
ENDCHAR
STARTCHAR U+006d latin small letter m
ENCODING 109
SWIDTH 480 0
DWIDTH 5 0
BBX 5 11 0 -2
BITMAP
00
00
00
00
A0
F0
F0
90
90
00
00
ENDCHAR
STARTCHAR U+006e latin small letter n
ENCODING 110
SWIDTH 480 0
DWIDTH 5 0
BBX 5 11 0 -2
BITMAP
00
00
00
00
E0
90
90
90
90
00
00
ENDCHAR
STARTCHAR U+006f latin small letter o
ENCODING 111
SWIDTH 480 0
DWIDTH 5 0
BBX 5 11 0 -2
BITMAP
00
00
00
00
60
90
90
90
60
00
00
ENDCHAR
STARTCHAR U+0070 latin small letter p
ENCODING 112
SWIDTH 480 0
DWIDTH 5 0
BBX 5 11 0 -2
BITMAP
00
00
00
00
E0
90
90
90
E0
80
80
ENDCHAR
STARTCHAR U+0071 latin small letter q
ENCODING 113
SWIDTH 480 0
DWIDTH 5 0
BBX 5 11 0 -2
BITMAP
00
00
00
00
70
90
90
90
70
10
10
ENDCHAR
STARTCHAR U+0072 latin small letter r
ENCODING 114
SWIDTH 480 0
DWIDTH 5 0
BBX 5 11 0 -2
BITMAP
00
00
00
00
E0
90
80
80
80
00
00
ENDCHAR
STARTCHAR U+0073 latin small letter s
ENCODING 115
SWIDTH 480 0
DWIDTH 5 0
BBX 5 11 0 -2
BITMAP
00
00
00
00
70
80
60
10
E0
00
00
ENDCHAR
STARTCHAR U+0074 latin small letter t
ENCODING 116
SWIDTH 480 0
DWIDTH 5 0
BBX 5 11 0 -2
BITMAP
00
00
40
40
E0
40
40
50
20
00
00
ENDCHAR
STARTCHAR U+0075 latin small letter u
ENCODING 117
SWIDTH 480 0
DWIDTH 5 0
BBX 5 11 0 -2
BITMAP
00
00
00
00
90
90
90
90
70
00
00
ENDCHAR
STARTCHAR U+0076 latin small letter v
ENCODING 118
SWIDTH 480 0
DWIDTH 5 0
BBX 5 11 0 -2
BITMAP
00
00
00
00
90
90
90
60
60
00
00
ENDCHAR
STARTCHAR U+0077 latin small letter w
ENCODING 119
SWIDTH 480 0
DWIDTH 5 0
BBX 5 11 0 -2
BITMAP
00
00
00
00
90
90
F0
F0
90
00
00
ENDCHAR
STARTCHAR U+0078 latin small letter x
ENCODING 120
SWIDTH 480 0
DWIDTH 5 0
BBX 5 11 0 -2
BITMAP
00
00
00
00
90
60
60
60
90
00
00
ENDCHAR
STARTCHAR U+0079 latin small letter y
ENCODING 121
SWIDTH 480 0
DWIDTH 5 0
BBX 5 11 0 -2
BITMAP
00
00
00
00
90
90
90
70
10
90
60
ENDCHAR
STARTCHAR U+007a latin small letter z
ENCODING 122
SWIDTH 480 0
DWIDTH 5 0
BBX 5 11 0 -2
BITMAP
00
00
00
00
F0
10
20
40
F0
00
00
ENDCHAR
STARTCHAR U+007b left curly brace
ENCODING 123
SWIDTH 480 0
DWIDTH 5 0
BBX 5 11 0 -2
BITMAP
00
30
40
40
40
80
40
40
40
30
00
ENDCHAR
STARTCHAR U+007c vertical bar
ENCODING 124
SWIDTH 480 0
DWIDTH 5 0
BBX 5 11 0 -2
BITMAP
00
20
20
20
20
20
20
20
20
20
00
ENDCHAR
STARTCHAR U+007d right curly brace
ENCODING 125
SWIDTH 480 0
DWIDTH 5 0
BBX 5 11 0 -2
BITMAP
00
C0
20
20
20
10
20
20
20
C0
00
ENDCHAR
STARTCHAR U+007e tilde
ENCODING 126
SWIDTH 480 0
DWIDTH 5 0
BBX 5 11 0 -2
BITMAP
00
00
48
A8
90
00
00
00
00
00
00
ENDCHAR
STARTCHAR nil
ENCODING 127
SWIDTH 480 0
DWIDTH 5 0
BBX 5 11 0 -2
BITMAP
00
F0
90
90
90
90
90
90
90
F0
00
ENDCHAR
STARTCHAR nil
ENCODING 128
SWIDTH 480 0
DWIDTH 5 0
BBX 5 11 0 -2
BITMAP
00
F0
90
90
90
90
90
90
90
F0
00
ENDCHAR
STARTCHAR nil
ENCODING 129
SWIDTH 480 0
DWIDTH 5 0
BBX 5 11 0 -2
BITMAP
00
F0
90
90
90
90
90
90
90
F0
00
ENDCHAR
STARTCHAR nil
ENCODING 130
SWIDTH 480 0
DWIDTH 5 0
BBX 5 11 0 -2
BITMAP
00
F0
90
90
90
90
90
90
90
F0
00
ENDCHAR
STARTCHAR nil
ENCODING 131
SWIDTH 480 0
DWIDTH 5 0
BBX 5 11 0 -2
BITMAP
00
F0
90
90
90
90
90
90
90
F0
00
ENDCHAR
STARTCHAR nil
ENCODING 132
SWIDTH 480 0
DWIDTH 5 0
BBX 5 11 0 -2
BITMAP
00
F0
90
90
90
90
90
90
90
F0
00
ENDCHAR
STARTCHAR nil
ENCODING 133
SWIDTH 480 0
DWIDTH 5 0
BBX 5 11 0 -2
BITMAP
00
F0
90
90
90
90
90
90
90
F0
00
ENDCHAR
STARTCHAR nil
ENCODING 134
SWIDTH 480 0
DWIDTH 5 0
BBX 5 11 0 -2
BITMAP
00
F0
90
90
90
90
90
90
90
F0
00
ENDCHAR
STARTCHAR nil
ENCODING 135
SWIDTH 480 0
DWIDTH 5 0
BBX 5 11 0 -2
BITMAP
00
F0
90
90
90
90
90
90
90
F0
00
ENDCHAR
STARTCHAR nil
ENCODING 136
SWIDTH 480 0
DWIDTH 5 0
BBX 5 11 0 -2
BITMAP
00
F0
90
90
90
90
90
90
90
F0
00
ENDCHAR
STARTCHAR nil
ENCODING 137
SWIDTH 480 0
DWIDTH 5 0
BBX 5 11 0 -2
BITMAP
00
F0
90
90
90
90
90
90
90
F0
00
ENDCHAR
STARTCHAR nil
ENCODING 138
SWIDTH 480 0
DWIDTH 5 0
BBX 5 11 0 -2
BITMAP
00
F0
90
90
90
90
90
90
90
F0
00
ENDCHAR
STARTCHAR nil
ENCODING 139
SWIDTH 480 0
DWIDTH 5 0
BBX 5 11 0 -2
BITMAP
00
F0
90
90
90
90
90
90
90
F0
00
ENDCHAR
STARTCHAR nil
ENCODING 140
SWIDTH 480 0
DWIDTH 5 0
BBX 5 11 0 -2
BITMAP
00
F0
90
90
90
90
90
90
90
F0
00
ENDCHAR
STARTCHAR nil
ENCODING 141
SWIDTH 480 0
DWIDTH 5 0
BBX 5 11 0 -2
BITMAP
00
F0
90
90
90
90
90
90
90
F0
00
ENDCHAR
STARTCHAR nil
ENCODING 142
SWIDTH 480 0
DWIDTH 5 0
BBX 5 11 0 -2
BITMAP
00
F0
90
90
90
90
90
90
90
F0
00
ENDCHAR
STARTCHAR nil
ENCODING 143
SWIDTH 480 0
DWIDTH 5 0
BBX 5 11 0 -2
BITMAP
00
F0
90
90
90
90
90
90
90
F0
00
ENDCHAR
STARTCHAR nil
ENCODING 144
SWIDTH 480 0
DWIDTH 5 0
BBX 5 11 0 -2
BITMAP
00
F0
90
90
90
90
90
90
90
F0
00
ENDCHAR
STARTCHAR nil
ENCODING 145
SWIDTH 480 0
DWIDTH 5 0
BBX 5 11 0 -2
BITMAP
00
F0
90
90
90
90
90
90
90
F0
00
ENDCHAR
STARTCHAR nil
ENCODING 146
SWIDTH 480 0
DWIDTH 5 0
BBX 5 11 0 -2
BITMAP
00
F0
90
90
90
90
90
90
90
F0
00
ENDCHAR
STARTCHAR nil
ENCODING 147
SWIDTH 480 0
DWIDTH 5 0
BBX 5 11 0 -2
BITMAP
00
F0
90
90
90
90
90
90
90
F0
00
ENDCHAR
STARTCHAR nil
ENCODING 148
SWIDTH 480 0
DWIDTH 5 0
BBX 5 11 0 -2
BITMAP
00
F0
90
90
90
90
90
90
90
F0
00
ENDCHAR
STARTCHAR nil
ENCODING 149
SWIDTH 480 0
DWIDTH 5 0
BBX 5 11 0 -2
BITMAP
00
F0
90
90
90
90
90
90
90
F0
00
ENDCHAR
STARTCHAR nil
ENCODING 150
SWIDTH 480 0
DWIDTH 5 0
BBX 5 11 0 -2
BITMAP
00
F0
90
90
90
90
90
90
90
F0
00
ENDCHAR
STARTCHAR nil
ENCODING 151
SWIDTH 480 0
DWIDTH 5 0
BBX 5 11 0 -2
BITMAP
00
F0
90
90
90
90
90
90
90
F0
00
ENDCHAR
STARTCHAR nil
ENCODING 152
SWIDTH 480 0
DWIDTH 5 0
BBX 5 11 0 -2
BITMAP
00
F0
90
90
90
90
90
90
90
F0
00
ENDCHAR
STARTCHAR nil
ENCODING 153
SWIDTH 480 0
DWIDTH 5 0
BBX 5 11 0 -2
BITMAP
00
F0
90
90
90
90
90
90
90
F0
00
ENDCHAR
STARTCHAR nil
ENCODING 154
SWIDTH 480 0
DWIDTH 5 0
BBX 5 11 0 -2
BITMAP
00
F0
90
90
90
90
90
90
90
F0
00
ENDCHAR
STARTCHAR nil
ENCODING 155
SWIDTH 480 0
DWIDTH 5 0
BBX 5 11 0 -2
BITMAP
00
F0
90
90
90
90
90
90
90
F0
00
ENDCHAR
STARTCHAR nil
ENCODING 156
SWIDTH 480 0
DWIDTH 5 0
BBX 5 11 0 -2
BITMAP
00
F0
90
90
90
90
90
90
90
F0
00
ENDCHAR
STARTCHAR nil
ENCODING 157
SWIDTH 480 0
DWIDTH 5 0
BBX 5 11 0 -2
BITMAP
00
F0
90
90
90
90
90
90
90
F0
00
ENDCHAR
STARTCHAR nil
ENCODING 158
SWIDTH 480 0
DWIDTH 5 0
BBX 5 11 0 -2
BITMAP
00
F0
90
90
90
90
90
90
90
F0
00
ENDCHAR
STARTCHAR nil
ENCODING 159
SWIDTH 480 0
DWIDTH 5 0
BBX 5 11 0 -2
BITMAP
00
F0
90
90
90
90
90
90
90
F0
00
ENDCHAR
STARTCHAR U+00a0 no-break space
ENCODING 160
SWIDTH 480 0
DWIDTH 5 0
BBX 5 11 0 -2
BITMAP
00
00
00
00
00
00
00
00
00
00
00
ENDCHAR
STARTCHAR U+00a1 inverted exclamation mark
ENCODING 161
SWIDTH 480 0
DWIDTH 5 0
BBX 5 11 0 -2
BITMAP
00
00
00
00
20
00
20
20
20
20
20
ENDCHAR
STARTCHAR U+00a2 cent sign
ENCODING 162
SWIDTH 480 0
DWIDTH 5 0
BBX 5 11 0 -2
BITMAP
00
00
20
70
A0
A0
A0
70
20
00
00
ENDCHAR
STARTCHAR U+00a3 pound sign
ENCODING 163
SWIDTH 480 0
DWIDTH 5 0
BBX 5 11 0 -2
BITMAP
00
00
20
50
40
E0
40
40
F0
00
00
ENDCHAR
STARTCHAR U+00a4 currency sign
ENCODING 164
SWIDTH 480 0
DWIDTH 5 0
BBX 5 11 0 -2
BITMAP
00
00
00
90
60
90
90
60
90
00
00
ENDCHAR
STARTCHAR U+00a5 yen sign
ENCODING 165
SWIDTH 480 0
DWIDTH 5 0
BBX 5 11 0 -2
BITMAP
00
00
90
90
60
F0
20
F0
20
00
00
ENDCHAR
STARTCHAR U+00a6 broken bar
ENCODING 166
SWIDTH 480 0
DWIDTH 5 0
BBX 5 11 0 -2
BITMAP
00
20
20
20
20
00
20
20
20
20
00
ENDCHAR
STARTCHAR U+00a7 section sign
ENCODING 167
SWIDTH 480 0
DWIDTH 5 0
BBX 5 11 0 -2
BITMAP
00
70
80
60
90
90
60
10
E0
00
00
ENDCHAR
STARTCHAR U+00a8 diaresis
ENCODING 168
SWIDTH 480 0
DWIDTH 5 0
BBX 5 11 0 -2
BITMAP
00
90
90
00
00
00
00
00
00
00
00
ENDCHAR
STARTCHAR U+00a9 copyright sign
ENCODING 169
SWIDTH 480 0
DWIDTH 5 0
BBX 5 11 0 -2
BITMAP
00
70
88
A8
C8
C8
A8
88
70
00
00
ENDCHAR
STARTCHAR U+00aa feminine ordinal indicator
ENCODING 170
SWIDTH 480 0
DWIDTH 5 0
BBX 5 11 0 -2
BITMAP
00
60
10
70
90
70
00
F0
00
00
00
ENDCHAR
STARTCHAR U+00ab left-pointing double angle quotation mark
ENCODING 171
SWIDTH 480 0
DWIDTH 5 0
BBX 5 11 0 -2
BITMAP
00
00
00
00
48
90
90
48
00
00
00
ENDCHAR
STARTCHAR U+00ac not sign
ENCODING 172
SWIDTH 480 0
DWIDTH 5 0
BBX 5 11 0 -2
BITMAP
00
00
00
00
00
F0
10
10
00
00
00
ENDCHAR
STARTCHAR U+00ad soft hyphen
ENCODING 173
SWIDTH 480 0
DWIDTH 5 0
BBX 5 11 0 -2
BITMAP
00
00
00
00
00
70
00
00
00
00
00
ENDCHAR
STARTCHAR U+00ae registered sign
ENCODING 174
SWIDTH 480 0
DWIDTH 5 0
BBX 5 11 0 -2
BITMAP
00
70
88
B8
A8
A8
A8
88
70
00
00
ENDCHAR
STARTCHAR U+00af macron
ENCODING 175
SWIDTH 480 0
DWIDTH 5 0
BBX 5 11 0 -2
BITMAP
00
00
F0
00
00
00
00
00
00
00
00
ENDCHAR
STARTCHAR U+00b0 degree sign
ENCODING 176
SWIDTH 480 0
DWIDTH 5 0
BBX 5 11 0 -2
BITMAP
00
60
90
90
60
00
00
00
00
00
00
ENDCHAR
STARTCHAR U+00b1 plus-minus sign
ENCODING 177
SWIDTH 480 0
DWIDTH 5 0
BBX 5 11 0 -2
BITMAP
00
00
20
20
F8
20
20
00
F8
00
00
ENDCHAR
STARTCHAR U+00b2 superscript two
ENCODING 178
SWIDTH 480 0
DWIDTH 5 0
BBX 5 11 0 -2
BITMAP
00
40
A0
20
40
E0
00
00
00
00
00
ENDCHAR
STARTCHAR U+00b3 superscript three
ENCODING 179
SWIDTH 480 0
DWIDTH 5 0
BBX 5 11 0 -2
BITMAP
00
E0
40
20
A0
40
00
00
00
00
00
ENDCHAR
STARTCHAR U+00b4 acute accent
ENCODING 180
SWIDTH 480 0
DWIDTH 5 0
BBX 5 11 0 -2
BITMAP
00
20
40
00
00
00
00
00
00
00
00
ENDCHAR
STARTCHAR U+00b5 micro sign
ENCODING 181
SWIDTH 480 0
DWIDTH 5 0
BBX 5 11 0 -2
BITMAP
00
00
00
00
90
90
90
F0
90
80
00
ENDCHAR
STARTCHAR U+00b6 pilcrow sign
ENCODING 182
SWIDTH 480 0
DWIDTH 5 0
BBX 5 11 0 -2
BITMAP
00
00
70
90
90
70
30
30
30
00
00
ENDCHAR
STARTCHAR U+00b7 middle dot
ENCODING 183
SWIDTH 480 0
DWIDTH 5 0
BBX 5 11 0 -2
BITMAP
00
00
00
00
00
40
40
00
00
00
00
ENDCHAR
STARTCHAR U+00b8 cedilla
ENCODING 184
SWIDTH 480 0
DWIDTH 5 0
BBX 5 11 0 -2
BITMAP
00
00
00
00
00
00
00
00
40
20
40
ENDCHAR
STARTCHAR U+00b9 superscript one
ENCODING 185
SWIDTH 480 0
DWIDTH 5 0
BBX 5 11 0 -2
BITMAP
00
20
60
20
20
20
00
00
00
00
00
ENDCHAR
STARTCHAR U+00ba masculine ordinal indicator
ENCODING 186
SWIDTH 480 0
DWIDTH 5 0
BBX 5 11 0 -2
BITMAP
00
60
90
90
90
60
00
F0
00
00
00
ENDCHAR
STARTCHAR U+00bb right-pointing double angle quotation mark
ENCODING 187
SWIDTH 480 0
DWIDTH 5 0
BBX 5 11 0 -2
BITMAP
00
00
00
00
90
48
48
90
00
00
00
ENDCHAR
STARTCHAR U+00bc vulgar fraction one quarter
ENCODING 188
SWIDTH 480 0
DWIDTH 5 0
BBX 5 11 0 -2
BITMAP
00
40
C0
40
40
10
30
50
70
10
00
ENDCHAR
STARTCHAR U+00bd vulgar fraction one half
ENCODING 189
SWIDTH 480 0
DWIDTH 5 0
BBX 5 11 0 -2
BITMAP
00
40
C0
40
40
20
50
10
20
70
00
ENDCHAR
STARTCHAR U+00be vulgar fraction three quarters
ENCODING 190
SWIDTH 480 0
DWIDTH 5 0
BBX 5 11 0 -2
BITMAP
00
E0
40
20
A0
50
30
50
70
10
00
ENDCHAR
STARTCHAR U+00bf inverted question mark
ENCODING 191
SWIDTH 480 0
DWIDTH 5 0
BBX 5 11 0 -2
BITMAP
00
00
00
00
20
00
20
20
40
80
70
ENDCHAR
STARTCHAR U+00c0 latin capital letter A with grave
ENCODING 192
SWIDTH 480 0
DWIDTH 5 0
BBX 5 11 0 -2
BITMAP
40
20
00
60
90
90
F0
90
90
00
00
ENDCHAR
STARTCHAR U+00c1 latin capital letter A with acute
ENCODING 193
SWIDTH 480 0
DWIDTH 5 0
BBX 5 11 0 -2
BITMAP
20
40
00
60
90
90
F0
90
90
00
00
ENDCHAR
STARTCHAR U+00c2 latin capital letter A with circumflex
ENCODING 194
SWIDTH 480 0
DWIDTH 5 0
BBX 5 11 0 -2
BITMAP
60
90
00
60
90
90
F0
90
90
00
00
ENDCHAR
STARTCHAR U+00c3 latin capital letter A with tilde
ENCODING 195
SWIDTH 480 0
DWIDTH 5 0
BBX 5 11 0 -2
BITMAP
50
A0
00
60
90
90
F0
90
90
00
00
ENDCHAR
STARTCHAR U+00c4 latin capital letter A with diaresis
ENCODING 196
SWIDTH 480 0
DWIDTH 5 0
BBX 5 11 0 -2
BITMAP
90
90
00
60
90
90
F0
90
90
00
00
ENDCHAR
STARTCHAR U+00c5 latin capital letter A with ring above
ENCODING 197
SWIDTH 480 0
DWIDTH 5 0
BBX 5 11 0 -2
BITMAP
60
90
60
60
90
90
F0
90
90
00
00
ENDCHAR
STARTCHAR U+00c6 latin capital ligature AE
ENCODING 198
SWIDTH 480 0
DWIDTH 5 0
BBX 5 11 0 -2
BITMAP
00
00
70
A0
A0
F0
A0
A0
B0
00
00
ENDCHAR
STARTCHAR U+00c7 latin capital letter C with cedilla
ENCODING 199
SWIDTH 480 0
DWIDTH 5 0
BBX 5 11 0 -2
BITMAP
00
00
60
90
80
80
80
90
60
20
40
ENDCHAR
STARTCHAR U+00c8 latin capital letter E with grave
ENCODING 200
SWIDTH 480 0
DWIDTH 5 0
BBX 5 11 0 -2
BITMAP
40
20
00
F0
80
E0
80
80
F0
00
00
ENDCHAR
STARTCHAR U+00c9 latin capital letter E with acute
ENCODING 201
SWIDTH 480 0
DWIDTH 5 0
BBX 5 11 0 -2
BITMAP
20
40
00
F0
80
E0
80
80
F0
00
00
ENDCHAR
STARTCHAR U+00ca latin capital letter E with circumflex
ENCODING 202
SWIDTH 480 0
DWIDTH 5 0
BBX 5 11 0 -2
BITMAP
60
90
00
F0
80
E0
80
80
F0
00
00
ENDCHAR
STARTCHAR U+00cb latin capital letter E with diaresis
ENCODING 203
SWIDTH 480 0
DWIDTH 5 0
BBX 5 11 0 -2
BITMAP
90
90
00
F0
80
E0
80
80
F0
00
00
ENDCHAR
STARTCHAR U+00cc latin capital letter I with grave
ENCODING 204
SWIDTH 480 0
DWIDTH 5 0
BBX 5 11 0 -2
BITMAP
80
40
00
E0
40
40
40
40
E0
00
00
ENDCHAR
STARTCHAR U+00cd latin capital letter I with acute
ENCODING 205
SWIDTH 480 0
DWIDTH 5 0
BBX 5 11 0 -2
BITMAP
20
40
00
E0
40
40
40
40
E0
00
00
ENDCHAR
STARTCHAR U+00ce latin capital letter I with circumflex
ENCODING 206
SWIDTH 480 0
DWIDTH 5 0
BBX 5 11 0 -2
BITMAP
60
90
00
E0
40
40
40
40
E0
00
00
ENDCHAR
STARTCHAR U+00cf latin capital letter I with diaresis
ENCODING 207
SWIDTH 480 0
DWIDTH 5 0
BBX 5 11 0 -2
BITMAP
90
90
00
E0
40
40
40
40
E0
00
00
ENDCHAR
STARTCHAR U+00d0 latin capital letter Eth
ENCODING 208
SWIDTH 480 0
DWIDTH 5 0
BBX 5 11 0 -2
BITMAP
00
00
60
50
48
E8
48
50
60
00
00
ENDCHAR
STARTCHAR U+00d1 latin capital letter N with tilde
ENCODING 209
SWIDTH 480 0
DWIDTH 5 0
BBX 5 11 0 -2
BITMAP
50
A0
00
90
D0
D0
B0
B0
90
00
00
ENDCHAR
STARTCHAR U+00d2 latin capital letter O with grave
ENCODING 210
SWIDTH 480 0
DWIDTH 5 0
BBX 5 11 0 -2
BITMAP
40
20
00
60
90
90
90
90
60
00
00
ENDCHAR
STARTCHAR U+00d3 latin capital letter O with acute
ENCODING 211
SWIDTH 480 0
DWIDTH 5 0
BBX 5 11 0 -2
BITMAP
20
40
00
60
90
90
90
90
60
00
00
ENDCHAR
STARTCHAR U+00d4 latin capital letter O with circumflex
ENCODING 212
SWIDTH 480 0
DWIDTH 5 0
BBX 5 11 0 -2
BITMAP
60
90
00
60
90
90
90
90
60
00
00
ENDCHAR
STARTCHAR U+00d5 latin capital letter O with tilde
ENCODING 213
SWIDTH 480 0
DWIDTH 5 0
BBX 5 11 0 -2
BITMAP
50
A0
00
60
90
90
90
90
60
00
00
ENDCHAR
STARTCHAR U+00d6 latin capital letter O with diaresis
ENCODING 214
SWIDTH 480 0
DWIDTH 5 0
BBX 5 11 0 -2
BITMAP
90
90
00
60
90
90
90
90
60
00
00
ENDCHAR
STARTCHAR U+00d7 multiplication sign
ENCODING 215
SWIDTH 480 0
DWIDTH 5 0
BBX 5 11 0 -2
BITMAP
00
00
00
00
88
50
20
50
88
00
00
ENDCHAR
STARTCHAR U+00d8 latin capital letter O with stroke
ENCODING 216
SWIDTH 480 0
DWIDTH 5 0
BBX 5 11 0 -2
BITMAP
00
10
70
B0
B0
B0
D0
D0
E0
80
00
ENDCHAR
STARTCHAR U+00d9 latin capital letter U with grave
ENCODING 217
SWIDTH 480 0
DWIDTH 5 0
BBX 5 11 0 -2
BITMAP
40
20
00
90
90
90
90
90
60
00
00
ENDCHAR
STARTCHAR U+00da latin capital letter U with acute
ENCODING 218
SWIDTH 480 0
DWIDTH 5 0
BBX 5 11 0 -2
BITMAP
20
40
00
90
90
90
90
90
60
00
00
ENDCHAR
STARTCHAR U+00db latin capital letter U with circumflex
ENCODING 219
SWIDTH 480 0
DWIDTH 5 0
BBX 5 11 0 -2
BITMAP
60
90
00
90
90
90
90
90
60
00
00
ENDCHAR
STARTCHAR U+00dc latin capital letter U with diaresis
ENCODING 220
SWIDTH 480 0
DWIDTH 5 0
BBX 5 11 0 -2
BITMAP
90
90
00
90
90
90
90
90
60
00
00
ENDCHAR
STARTCHAR U+00dd latin capital letter Y with acute
ENCODING 221
SWIDTH 480 0
DWIDTH 5 0
BBX 5 11 0 -2
BITMAP
20
40
00
90
90
60
20
20
20
00
00
ENDCHAR
STARTCHAR U+00de latin capital letter Thorn
ENCODING 222
SWIDTH 480 0
DWIDTH 5 0
BBX 5 11 0 -2
BITMAP
00
00
80
80
E0
90
E0
80
80
00
00
ENDCHAR
STARTCHAR U+00df latin small letter sharp s
ENCODING 223
SWIDTH 480 0
DWIDTH 5 0
BBX 5 11 0 -2
BITMAP
00
00
60
90
A0
90
90
90
A0
80
00
ENDCHAR
STARTCHAR U+00e0 latin small letter a with grave
ENCODING 224
SWIDTH 480 0
DWIDTH 5 0
BBX 5 11 0 -2
BITMAP
00
40
20
00
60
10
70
90
70
00
00
ENDCHAR
STARTCHAR U+00e1 latin small letter a with acute
ENCODING 225
SWIDTH 480 0
DWIDTH 5 0
BBX 5 11 0 -2
BITMAP
00
20
40
00
60
10
70
90
70
00
00
ENDCHAR
STARTCHAR U+00e2 latin small letter a with circumflex
ENCODING 226
SWIDTH 480 0
DWIDTH 5 0
BBX 5 11 0 -2
BITMAP
00
60
90
00
60
10
70
90
70
00
00
ENDCHAR
STARTCHAR U+00e3 latin small letter a with tilde
ENCODING 227
SWIDTH 480 0
DWIDTH 5 0
BBX 5 11 0 -2
BITMAP
00
50
A0
00
60
10
70
90
70
00
00
ENDCHAR
STARTCHAR U+00e4 latin small letter a with diaresis
ENCODING 228
SWIDTH 480 0
DWIDTH 5 0
BBX 5 11 0 -2
BITMAP
00
90
90
00
60
10
70
90
70
00
00
ENDCHAR
STARTCHAR U+00e5 latin small letter a with ring above
ENCODING 229
SWIDTH 480 0
DWIDTH 5 0
BBX 5 11 0 -2
BITMAP
60
90
60
00
60
10
70
90
70
00
00
ENDCHAR
STARTCHAR U+00e6 latin small ligature ae
ENCODING 230
SWIDTH 480 0
DWIDTH 5 0
BBX 5 11 0 -2
BITMAP
00
00
00
00
D0
30
70
A0
50
00
00
ENDCHAR
STARTCHAR U+00e7 latin small letter c with cedilla
ENCODING 231
SWIDTH 480 0
DWIDTH 5 0
BBX 5 11 0 -2
BITMAP
00
00
00
00
60
90
80
90
60
20
40
ENDCHAR
STARTCHAR U+00e8 latin small letter e with grave
ENCODING 232
SWIDTH 480 0
DWIDTH 5 0
BBX 5 11 0 -2
BITMAP
00
40
20
00
60
90
F0
80
70
00
00
ENDCHAR
STARTCHAR U+00e9 latin small letter e with acute
ENCODING 233
SWIDTH 480 0
DWIDTH 5 0
BBX 5 11 0 -2
BITMAP
00
20
40
00
60
90
F0
80
70
00
00
ENDCHAR
STARTCHAR U+00ea latin small letter e with circumflex
ENCODING 234
SWIDTH 480 0
DWIDTH 5 0
BBX 5 11 0 -2
BITMAP
00
60
90
00
60
90
F0
80
70
00
00
ENDCHAR
STARTCHAR U+00eb latin small letter e with diaresis
ENCODING 235
SWIDTH 480 0
DWIDTH 5 0
BBX 5 11 0 -2
BITMAP
00
90
90
00
60
90
F0
80
70
00
00
ENDCHAR
STARTCHAR U+00ec latin small letter i with grave
ENCODING 236
SWIDTH 480 0
DWIDTH 5 0
BBX 5 11 0 -2
BITMAP
00
40
20
00
60
20
20
20
20
00
00
ENDCHAR
STARTCHAR U+00ed latin small letter i with acute
ENCODING 237
SWIDTH 480 0
DWIDTH 5 0
BBX 5 11 0 -2
BITMAP
00
10
20
00
60
20
20
20
20
00
00
ENDCHAR
STARTCHAR U+00ee latin small letter i with circumflex
ENCODING 238
SWIDTH 480 0
DWIDTH 5 0
BBX 5 11 0 -2
BITMAP
00
60
90
00
60
20
20
20
20
00
00
ENDCHAR
STARTCHAR U+00ef latin small letter i with diaresis
ENCODING 239
SWIDTH 480 0
DWIDTH 5 0
BBX 5 11 0 -2
BITMAP
00
90
90
00
60
20
20
20
20
00
00
ENDCHAR
STARTCHAR U+00f0 latin small letter eth
ENCODING 240
SWIDTH 480 0
DWIDTH 5 0
BBX 5 11 0 -2
BITMAP
00
A0
40
C0
20
60
90
90
60
00
00
ENDCHAR
STARTCHAR U+00f1 latin small letter n with tilde
ENCODING 241
SWIDTH 480 0
DWIDTH 5 0
BBX 5 11 0 -2
BITMAP
00
50
A0
00
E0
90
90
90
90
00
00
ENDCHAR
STARTCHAR U+00f2 latin small letter o with grave
ENCODING 242
SWIDTH 480 0
DWIDTH 5 0
BBX 5 11 0 -2
BITMAP
00
40
20
00
60
90
90
90
60
00
00
ENDCHAR
STARTCHAR U+00f3 latin small letter o with acute
ENCODING 243
SWIDTH 480 0
DWIDTH 5 0
BBX 5 11 0 -2
BITMAP
00
20
40
00
60
90
90
90
60
00
00
ENDCHAR
STARTCHAR U+00f4 latin small letter o with circumflex
ENCODING 244
SWIDTH 480 0
DWIDTH 5 0
BBX 5 11 0 -2
BITMAP
00
60
90
00
60
90
90
90
60
00
00
ENDCHAR
STARTCHAR U+00f5 latin small letter o with tilde
ENCODING 245
SWIDTH 480 0
DWIDTH 5 0
BBX 5 11 0 -2
BITMAP
00
50
A0
00
60
90
90
90
60
00
00
ENDCHAR
STARTCHAR U+00f6 latin small letter o with diaresis
ENCODING 246
SWIDTH 480 0
DWIDTH 5 0
BBX 5 11 0 -2
BITMAP
00
90
90
00
60
90
90
90
60
00
00
ENDCHAR
STARTCHAR U+00f7 division sign
ENCODING 247
SWIDTH 480 0
DWIDTH 5 0
BBX 5 11 0 -2
BITMAP
00
00
20
20
00
F8
00
20
20
00
00
ENDCHAR
STARTCHAR U+00f8 latin small letter o with stroke
ENCODING 248
SWIDTH 480 0
DWIDTH 5 0
BBX 5 11 0 -2
BITMAP
00
00
00
00
70
B0
B0
D0
E0
00
00
ENDCHAR
STARTCHAR U+00f9 latin small letter u with grave
ENCODING 249
SWIDTH 480 0
DWIDTH 5 0
BBX 5 11 0 -2
BITMAP
00
40
20
00
90
90
90
90
70
00
00
ENDCHAR
STARTCHAR U+00fa latin small letter u with acute
ENCODING 250
SWIDTH 480 0
DWIDTH 5 0
BBX 5 11 0 -2
BITMAP
00
20
40
00
90
90
90
90
70
00
00
ENDCHAR
STARTCHAR U+00fb latin small letter u with circumflex
ENCODING 251
SWIDTH 480 0
DWIDTH 5 0
BBX 5 11 0 -2
BITMAP
00
60
90
00
90
90
90
90
70
00
00
ENDCHAR
STARTCHAR U+00fc latin small letter u with diaresis
ENCODING 252
SWIDTH 480 0
DWIDTH 5 0
BBX 5 11 0 -2
BITMAP
00
90
90
00
90
90
90
90
70
00
00
ENDCHAR
STARTCHAR U+00fd latin small letter y with acute
ENCODING 253
SWIDTH 480 0
DWIDTH 5 0
BBX 5 11 0 -2
BITMAP
00
20
40
00
90
90
90
70
10
90
60
ENDCHAR
STARTCHAR U+00fe latin small letter thorn
ENCODING 254
SWIDTH 480 0
DWIDTH 5 0
BBX 5 11 0 -2
BITMAP
00
00
80
80
E0
90
90
90
E0
80
80
ENDCHAR
STARTCHAR U+00ff latin small letter y with diaresis
ENCODING 255
SWIDTH 480 0
DWIDTH 5 0
BBX 5 11 0 -2
BITMAP
00
90
90
00
90
90
90
70
10
90
60
ENDCHAR
ENDFONT
